<mxfile host="Electron" agent="Mozilla/5.0 (Macintosh; Intel Mac OS X 10_15_7) AppleWebKit/537.36 (KHTML, like Gecko) draw.io/24.7.8 Chrome/128.0.6613.36 Electron/32.0.1 Safari/537.36" version="24.7.8" pages="2">
  <diagram name="Исходная схема" id="-H_mtQnk-PTXWXPvYvuk">
    <mxGraphModel dx="1242" dy="814" grid="1" gridSize="10" guides="1" tooltips="1" connect="1" arrows="1" fold="1" page="1" pageScale="1" pageWidth="1169" pageHeight="827" math="0" shadow="0">
      <root>
        <mxCell id="0" />
        <mxCell id="1" parent="0" />
        <mxCell id="zA23MoTUsTF4_91t8viU-2" value="MongoDB" style="shape=cylinder3;whiteSpace=wrap;html=1;boundedLbl=1;backgroundOutline=1;size=15;" parent="1" vertex="1">
          <mxGeometry x="560" y="280" width="60" height="80" as="geometry" />
        </mxCell>
        <mxCell id="zA23MoTUsTF4_91t8viU-3" value="pymongo-api" style="rounded=1;whiteSpace=wrap;html=1;" parent="1" vertex="1">
          <mxGeometry x="360" y="290" width="120" height="60" as="geometry" />
        </mxCell>
        <mxCell id="zA23MoTUsTF4_91t8viU-4" style="edgeStyle=orthogonalEdgeStyle;rounded=0;orthogonalLoop=1;jettySize=auto;html=1;exitX=1;exitY=0.5;exitDx=0;exitDy=0;entryX=0;entryY=0.5;entryDx=0;entryDy=0;entryPerimeter=0;" parent="1" source="zA23MoTUsTF4_91t8viU-3" target="zA23MoTUsTF4_91t8viU-2" edge="1">
          <mxGeometry relative="1" as="geometry" />
        </mxCell>
      </root>
    </mxGraphModel>
  </diagram>
  <diagram name="Шардирование" id="oPtuJivsGBBx_MCdHUo3">
    <mxGraphModel dx="1242" dy="814" grid="1" gridSize="10" guides="1" tooltips="1" connect="1" arrows="1" fold="1" page="1" pageScale="1" pageWidth="1169" pageHeight="827" math="0" shadow="0">
      <root>
        <mxCell id="chRNf-42jHCHfpbuEgxI-0" />
        <mxCell id="chRNf-42jHCHfpbuEgxI-1" parent="chRNf-42jHCHfpbuEgxI-0" />
        <mxCell id="-XsVZ9HbP4WBgPhBywLQ-7" style="edgeStyle=orthogonalEdgeStyle;rounded=0;orthogonalLoop=1;jettySize=auto;html=1;exitX=0.5;exitY=1;exitDx=0;exitDy=0;exitPerimeter=0;entryX=0.5;entryY=0;entryDx=0;entryDy=0;" edge="1" parent="chRNf-42jHCHfpbuEgxI-1" source="chRNf-42jHCHfpbuEgxI-2" target="-XsVZ9HbP4WBgPhBywLQ-2">
          <mxGeometry relative="1" as="geometry" />
        </mxCell>
        <mxCell id="chRNf-42jHCHfpbuEgxI-2" value="MongoDB shard1" style="shape=cylinder3;whiteSpace=wrap;html=1;boundedLbl=1;backgroundOutline=1;size=15;" vertex="1" parent="chRNf-42jHCHfpbuEgxI-1">
          <mxGeometry x="650" y="150" width="60" height="80" as="geometry" />
        </mxCell>
        <mxCell id="chRNf-42jHCHfpbuEgxI-3" value="pymongo-api" style="rounded=1;whiteSpace=wrap;html=1;" vertex="1" parent="chRNf-42jHCHfpbuEgxI-1">
          <mxGeometry x="290" y="280" width="120" height="60" as="geometry" />
        </mxCell>
        <mxCell id="chRNf-42jHCHfpbuEgxI-4" style="edgeStyle=orthogonalEdgeStyle;rounded=0;orthogonalLoop=1;jettySize=auto;html=1;exitX=1;exitY=0.5;exitDx=0;exitDy=0;entryX=0;entryY=0.5;entryDx=0;entryDy=0;" edge="1" parent="chRNf-42jHCHfpbuEgxI-1" source="chRNf-42jHCHfpbuEgxI-3" target="-XsVZ9HbP4WBgPhBywLQ-1">
          <mxGeometry relative="1" as="geometry">
            <mxPoint x="460" y="310" as="targetPoint" />
          </mxGeometry>
        </mxCell>
        <mxCell id="-XsVZ9HbP4WBgPhBywLQ-8" style="edgeStyle=orthogonalEdgeStyle;rounded=0;orthogonalLoop=1;jettySize=auto;html=1;exitX=0.5;exitY=0;exitDx=0;exitDy=0;exitPerimeter=0;entryX=0.5;entryY=1;entryDx=0;entryDy=0;" edge="1" parent="chRNf-42jHCHfpbuEgxI-1" source="-XsVZ9HbP4WBgPhBywLQ-0" target="-XsVZ9HbP4WBgPhBywLQ-2">
          <mxGeometry relative="1" as="geometry" />
        </mxCell>
        <mxCell id="-XsVZ9HbP4WBgPhBywLQ-0" value="MongoDB shard2" style="shape=cylinder3;whiteSpace=wrap;html=1;boundedLbl=1;backgroundOutline=1;size=15;" vertex="1" parent="chRNf-42jHCHfpbuEgxI-1">
          <mxGeometry x="650" y="390" width="60" height="80" as="geometry" />
        </mxCell>
        <mxCell id="-XsVZ9HbP4WBgPhBywLQ-4" style="edgeStyle=orthogonalEdgeStyle;rounded=0;orthogonalLoop=1;jettySize=auto;html=1;exitX=1;exitY=0.5;exitDx=0;exitDy=0;" edge="1" parent="chRNf-42jHCHfpbuEgxI-1" source="-XsVZ9HbP4WBgPhBywLQ-1" target="-XsVZ9HbP4WBgPhBywLQ-2">
          <mxGeometry relative="1" as="geometry" />
        </mxCell>
        <mxCell id="-XsVZ9HbP4WBgPhBywLQ-1" value="Роутер&amp;nbsp;&lt;div&gt;MongoDB&lt;/div&gt;" style="rounded=1;whiteSpace=wrap;html=1;" vertex="1" parent="chRNf-42jHCHfpbuEgxI-1">
          <mxGeometry x="465" y="280" width="120" height="60" as="geometry" />
        </mxCell>
        <mxCell id="-XsVZ9HbP4WBgPhBywLQ-2" value="Конфигурационный сервер ConfigSrv" style="rounded=1;whiteSpace=wrap;html=1;" vertex="1" parent="chRNf-42jHCHfpbuEgxI-1">
          <mxGeometry x="620" y="280" width="120" height="60" as="geometry" />
        </mxCell>
        <mxCell id="-XsVZ9HbP4WBgPhBywLQ-5" style="edgeStyle=orthogonalEdgeStyle;rounded=0;orthogonalLoop=1;jettySize=auto;html=1;exitX=0.5;exitY=0;exitDx=0;exitDy=0;entryX=0;entryY=0;entryDx=0;entryDy=52.5;entryPerimeter=0;" edge="1" parent="chRNf-42jHCHfpbuEgxI-1" source="-XsVZ9HbP4WBgPhBywLQ-1" target="chRNf-42jHCHfpbuEgxI-2">
          <mxGeometry relative="1" as="geometry" />
        </mxCell>
        <mxCell id="-XsVZ9HbP4WBgPhBywLQ-6" style="edgeStyle=orthogonalEdgeStyle;rounded=0;orthogonalLoop=1;jettySize=auto;html=1;exitX=0.5;exitY=1;exitDx=0;exitDy=0;entryX=0;entryY=0.5;entryDx=0;entryDy=0;entryPerimeter=0;" edge="1" parent="chRNf-42jHCHfpbuEgxI-1" source="-XsVZ9HbP4WBgPhBywLQ-1" target="-XsVZ9HbP4WBgPhBywLQ-0">
          <mxGeometry relative="1" as="geometry" />
        </mxCell>
      </root>
    </mxGraphModel>
  </diagram>
</mxfile>
